<?xml version="1.0" standalone="no"?>
<!DOCTYPE svg PUBLIC "-//W3C//DTD SVG 20010904//EN"
 "http://www.w3.org/TR/2001/REC-SVG-20010904/DTD/svg10.dtd">
<svg version="1.0" xmlns="http://www.w3.org/2000/svg"
 width="256.000000pt" height="256.000000pt" viewBox="0 0 256.000000 256.000000"
 preserveAspectRatio="xMidYMid meet">

<g transform="translate(0.000000,256.000000) scale(0.100000,-0.100000)"
fill="#000000" stroke="none">
<path d="M1020 2545 c-509 -109 -901 -501 -1004 -1007 -22 -106 -22 -400 0
-506 92 -451 418 -820 855 -966 140 -47 232 -61 404 -61 172 0 264 14 404 61
440 147 759 509 858 974 13 62 18 129 18 245 0 172 -14 262 -61 405 -144 433
-516 762 -966 854 -99 21 -413 21 -508 1z m208 -733 c46 0 85 -2 88 -4 2 -3
-6 -14 -19 -26 -16 -15 -42 -24 -85 -28 -34 -4 -62 -11 -62 -15 0 -5 35 -9 77
-9 l76 0 -22 -24 c-22 -24 -48 -32 -126 -42 -22 -3 -41 -9 -43 -13 -1 -4 -23
-43 -49 -87 -25 -43 -59 -104 -76 -134 -16 -30 -37 -63 -46 -73 -15 -18 -16
-18 -21 5 -4 16 13 64 58 158 35 74 77 164 94 200 40 87 59 115 67 102 3 -6
42 -10 89 -10z m-210 -80 c22 -22 21 -43 -5 -80 -10 -15 -50 -85 -89 -157
l-70 -130 -109 -3 -109 -3 24 25 c27 29 45 36 114 45 52 6 71 25 36 36 -29 9
-70 74 -70 110 1 47 35 112 72 135 39 23 105 26 134 5 19 -13 22 -12 32 10 14
30 17 30 40 7z m133 -156 c5 3 9 -10 9 -29 0 -24 -39 -113 -129 -293 -124
-250 -169 -327 -172 -294 -4 55 1 100 15 132 l16 38 -32 -7 c-18 -3 -33 -6
-34 -7 0 -1 -17 -30 -37 -66 -19 -36 -43 -74 -52 -85 -16 -19 -16 -19 -11 -1
4 10 1 34 -5 53 -9 29 -8 44 11 96 25 70 83 179 105 197 12 10 16 9 21 -4 3
-9 12 -16 19 -16 17 0 25 -33 13 -54 -7 -13 -5 -16 12 -16 15 0 26 11 36 38
32 75 133 280 160 323 l27 44 10 -28 c5 -15 13 -25 18 -21z m1009 -188 c-24
-39 -25 -52 -5 -44 26 10 16 -7 -40 -71 -30 -33 -55 -63 -55 -66 0 -3 27 -3
59 0 55 5 60 4 76 -20 16 -25 16 -28 -5 -58 -13 -17 -64 -61 -114 -99 -50 -37
-145 -119 -212 -181 -112 -106 -184 -161 -184 -142 0 4 16 18 35 31 19 12 43
37 52 56 51 96 173 235 263 299 l25 18 -30 -5 c-137 -25 -165 -20 -177 30 -7
27 -3 33 47 69 22 16 67 52 100 80 90 77 166 135 176 135 5 0 0 -15 -11 -32z
m-736 -13 c4 -14 11 -24 17 -22 29 6 14 -52 -31 -123 -26 -41 -78 -133 -115
-205 -37 -71 -70 -132 -72 -135 -7 -8 -23 25 -18 39 4 9 0 11 -11 7 -12 -4
-14 -1 -9 13 4 15 0 21 -23 26 -65 14 -139 119 -128 183 9 61 55 141 98 172
69 51 177 49 213 -3 9 -13 15 -16 15 -7 0 15 41 80 51 80 4 0 10 -11 13 -25z
m319 -35 c15 -17 27 -38 26 -48 0 -14 -3 -13 -16 6 -17 24 -56 31 -47 8 4 -9
-7 -15 -37 -19 -55 -7 -89 -33 -117 -87 -26 -52 -22 -75 21 -112 82 -73 195 7
171 120 -4 20 -8 40 -8 44 -1 3 -4 10 -8 14 -21 20 -4 22 22 2 36 -26 70 -80
70 -112 0 -33 -51 -127 -81 -149 -55 -39 -156 -41 -214 -3 -37 24 -85 104 -85
141 0 86 70 194 145 221 60 22 124 11 158 -26z m-1125 19 c33 -11 62 -47 62
-76 0 -15 -2 -15 -15 4 -16 23 -59 39 -52 20 2 -7 -17 -18 -46 -27 -57 -17
-102 -65 -113 -118 -6 -28 -2 -37 30 -67 39 -37 87 -46 126 -25 21 11 60 73
61 98 1 9 7 -1 14 -23 7 -23 9 -44 4 -50 -5 -5 -9 -18 -9 -30 -1 -71 -132
-110 -220 -65 -46 24 -84 76 -101 140 -11 42 -10 49 15 97 51 101 155 153 244
122z"/>
<path d="M925 1690 c3 -4 -7 -11 -23 -15 -89 -22 -124 -106 -63 -152 29 -22
37 -14 76 70 21 45 40 85 42 88 2 4 -5 9 -17 12 -11 3 -18 2 -15 -3z"/>
<path d="M1296 1296 c4 -10 -1 -14 -13 -14 -67 5 -140 -59 -150 -130 -5 -34
-1 -41 32 -71 20 -17 44 -31 53 -29 9 2 34 44 59 102 24 55 51 108 60 118 15
17 15 20 3 28 -24 15 -50 12 -44 -4z"/>
</g>
</svg>
